<?xml version="1.0" encoding="utf-8"?>
<!-- Generator: Adobe Illustrator 27.6.1, SVG Export Plug-In . SVG Version: 6.00 Build 0)  -->
<svg version="1.1" id="Layer_1" xmlns="http://www.w3.org/2000/svg" xmlns:xlink="http://www.w3.org/1999/xlink" x="0px" y="0px"
	 viewBox="0 0 606 607" style="enable-background:new 0 0 606 607;" xml:space="preserve">
<style type="text/css">
	.st0{fill:#00205B;}
</style>
<g>
	<path class="st0" d="M463.9,117.1c-0.2,12.4-1.8,26.6-7.7,40.3c-3.4,7.8-7.3,15.2-11.8,22.4c-1.6,2.5-3.1,5-4.6,7.5
		c-1.5,2.6-0.9,4.4,1.8,6c5.1,3.1,9.9,6.3,14.2,10.6c2.4,2.4,5.2,4.4,7.7,6.7c5.3,4.8,10.2,10.2,15.2,15.3
		c5.9,5.9,10.7,12.9,15.6,19.8c3.8,5.4,7.4,11,10.5,16.7c2.9,5.4,6.7,10.4,8.1,16.6c0.4,1.7,1.6,3.1,2.3,4.7
		c4.5,11.3,8.3,22.8,11.8,34.4c3.4,11.1,6.6,22.3,9.5,33.5c4.5,17,8.1,34.1,11.4,51.4c2.5,13.7,5.5,27.3,7.6,41
		c1.2,8.2,2.1,16.4,3.8,24.5c3.4,16.4,5.9,33,9.6,49.3c2.2,9.6,5.5,18.9,7.9,28.4c1.1,4.4-0.9,7-5.4,6.3c-9.7-1.6-19.2-4.5-28.8-6.6
		c-8-1.7-15.4-5.1-23.4-6.5c-1.8-0.3-3.7-1-5.3-1.9c-5.5-3.2-11.8-4.5-17.7-6.9c-3.8-1.6-6.3-0.4-8.1,4.2
		c-3.1,7.8-7.9,14.7-12.3,21.7c-2.5,4-5.2,7.9-7.9,11.8c-1.8,2.7-4.6,3-7.3,2c-10.4-3.9-21.2-6.3-31.6-10.4c-8.5-3.3-17-6.9-25.6-10
		c-4.5-1.7-8.7-4.2-13.3-5.9c-4.5-1.6-7.1-1.2-9.1,3.4c-1.6,3.8-4.1,7-6.3,10.3c-1.2,1.9-1,2.8,0.4,4c1.7,1.5,3.4,2.9,5.1,4.4
		c7.5,6.6,8.6,16.1,9.2,24.8c0.5,8.2-4.6,14.2-13.8,14.8c-7.3,0.4-14.5,0.2-21.6-2.8c-3.5-1.5-8.3-1.3-12.3,0.6
		c-3.9,1.8-8,2.4-12.3,2.4c-44.6-0.1-89.2-0.1-133.8-0.1c-7.6,0-10.7-2.2-13.6-9.3c-0.7-1.6-1-3.2-0.1-4.7
		c2.9-4.9,3.7-10.7,6.3-15.8c6.1-12.1,15.7-17.9,29.1-17.7c2.7,0,5.5-0.2,8.2,0c11.2,0.8,18.2-5.3,23.4-14.3
		c3.5-6,7.5-11.9,10.6-18.1c3.7-7.5,7.7-14.8,9.9-22.9c0.9-3.4-1.9-5.3-4-6.9c-6.8-5.3-13.8-10.4-20.2-16.2
		c-7.6-6.8-14.7-14.4-22.8-20.5c-6.6-5-13.5-9.8-20-15.1c-6.2-5.1-12.1-10.5-17.8-16.2c-5.8-6-11.3-12.1-16.6-18.5
		c-7.5-9.2-14.5-18.8-20.5-29c-7.3-12.3-13.9-25.1-18.8-38.5c-5.3-14.4-10.2-29.2-12.6-44.4c-3.7-22.6-5.1-45.4-2.8-68.3
		c0.6-5.7,1.6-11.3,2.4-16.9c0.4-3.3-0.9-5.6-3.7-7.9c-10.7-8.7-20-18.8-26.9-30.8c-5.9-10.1-10.8-21-13-32.5
		c-2-10.3-3.6-20.8-2.7-31.5c0.6-6.9,1.4-13.7,2-20.6c0.2-2.2,1-4.3,1.8-6.2c3.3-7.8,5.8-15.9,10-23.4c4.2-7.6,9.4-14.4,14.6-21.2
		c4.5-5.8,10.2-10.8,16.3-14.9c6.1-4.1,12.4-8.2,19.1-11.3c10.8-5.1,22.1-9.1,34.2-10.5c7.4-0.9,14.8-2.3,22.3-1.6
		C197,1,204,2.6,211,4.1c10.2,2.1,19.5,6.3,28.7,10.7c8.5,4.1,15.7,10.3,22.8,16.5c3.3,2.9,5.8,2.9,9.1-0.1
		c8.1-7.5,16.9-14.6,27.1-18.8c7.6-3.2,15.3-6.5,23.6-8.3c8.6-1.8,17.2-3.3,26-3.9c9.5-0.7,18.5,1.8,27.7,3.6
		c9.2,1.7,17.7,5.3,25.8,9.2c8.4,4.1,15.9,9.7,23.2,15.7c9.4,7.7,16.3,17,22.8,26.8c4.4,6.6,7,14.2,9.9,21.6
		C462.6,89.2,463.7,101.9,463.9,117.1z M337.8,218C337.8,218,337.8,218,337.8,218c7.8,0,15.5,0,23.3,0c10.7-0.1,20.4-8.5,21.7-20
		c1.1-9.6-1.3-18.6-3.1-27.7c-1-5.2-6.9-7.6-11.6-5.5c-3.5,1.5-7.1,2.5-10.7,3.6c-13.6,4.4-26.5,2-39.2-3.1
		c-4.5-1.8-7.1-0.5-7.7,4.4c-0.5,4.1-2.1,7.7-3.7,11.5c-2.6,6.3-5.9,12.1-8.8,18.3c-2.8,6-5.9,11.9-8.6,17.9
		c-3.1,6.8-6.7,13.3-9.7,20.1c-2.5,5.7-7,9.4-12.7,9.6c-5.1,0.1-11.1-4.2-13.1-9.2c-4.4-10.6-9.7-20.8-14.6-31.2
		c-5.9-12.8-13.8-24.8-16.7-38.9c-0.7-3.5-3.1-4.4-6.4-2.9c-5.9,2.7-12.2,4.8-18.6,5.4c-11.1,1.1-21.8-0.7-32.1-5.4
		c-4.9-2.2-10.5,0.1-11.6,5.4c-1.7,8.2-4.4,16.2-4,24.8c0.6,13,11.1,22.7,23.4,22.8c15,0.1,30,0.1,45-0.1c3.9-0.1,6.4,1.7,8.7,4.3
		c1.4,1.6,2,3.6,1.4,5.7c-0.7,2.4-3,1.5-4.6,1.6c-14.9,0.1-29.7,0.1-44.6,0c-4.3,0-8.7,0-13-1.1c-6.7-1.6-11.9,2.4-12,9.3
		c-0.1,3.8,0,7.6-0.1,11.5c-0.5,26.8,2.6,53.1,9.8,78.9c2.8,10,5.6,20,9.3,29.7c4.4,11.3,10,22,15.2,33c4.7,9.9,10.9,19,16.9,28.1
		c5.6,8.5,12.2,16.3,18.8,24.1c2.2,2.5,3.9,5.6,6.5,7.6c3.8,3,6.7,6.9,10.3,10.1c5.7,4.8,10.6,10.6,16.5,15.1
		c9.7,7.4,19.4,14.8,29.7,21.3c6.7,4.3,13.3,8.7,20.8,11.7c2,0.8,3.5,0.9,4.5-1.1c4.5-9.9,9.1-19.8,7.9-31.1
		c-0.5-4.8-2.6-9.2-5.9-12.6c-5.6-5.8-10.8-11.9-16-18.1c-5.2-6.3-9.9-13-14.9-19.6c-3.5-4.6-6.2-9.6-9.4-14.2
		c-0.9-1.2-0.9-2.9-0.5-4.4c0.6-2.7,2.4-4.7,4.9-5.5c2.6-0.8,3.1,1.8,4.4,3.3c1.9,2.2,2.7,4.9,4.3,7.2c4,5.7,8.1,11.3,12.1,17
		c2.1,3,4.3,5.9,6.6,8.6c5.1,6.2,11,11.7,16.6,17.4c9.1,9.3,18.7,18.1,28.8,26.2c10.6,8.4,22,16,33.8,22.8c2.8,1.6,3.8,1.2,4.7-1.3
		c2.9-8.1,7.4-15.6,8.7-24.2c1.1-7-0.3-13.7-4-19.9c-4.4-7.4-10.7-13.4-16-20.1c-5.8-7.5-11.3-15.2-16.4-23.1
		c-5.3-8.1-10.1-16.5-14.2-25.2c-4.5-9.5-9.6-18.7-13-28.7c-4.2-12.5-9.3-24.7-11.7-37.8c-2.1-11.5-5.6-22.7-6.6-34.6
		c-1.4-17.2-3.5-34.4-2.2-51.7c0.5-6.7,0.3-6.9-6.4-8.4c-3.1-0.7-4.3-2.9-2.7-5.7c1.9-3.4,4.4-6,9-5.8
		C322.3,218.2,330,218,337.8,218z M349.7,229.4c-6,0.5-11.3-0.4-16.6,0.8c-4.1,0.9-6.6,3.4-6.9,7.4c-0.4,5-0.9,10.1-0.8,15.1
		c0.5,14.5,1.4,28.9,3.6,43.4c2.1,13.5,5,26.8,8.7,39.9c3.2,11.3,7.4,22.3,11.9,33.1c5.3,12.8,12.2,24.8,19.2,36.7
		c6.8,11.6,15,22.4,23.7,32.8c3.4,4.1,6.7,8.5,10.4,12.4c2.9,3,5.9,6.1,8.9,9c3.4,3.3,6.6,6.7,10.2,9.7c6.9,5.8,14.2,11,21.1,16.8
		c1.9,1.6,4.4,2.1,6.1,3.9c4.6,5,10.8,7.8,16.4,11.2c8.7,5.4,18.1,10,27.3,14.6c7.3,3.7,15,6.8,22.5,9.8c13.5,5.3,27.7,9,41.9,12.4
		c3.6,0.9,4.1-0.2,3.8-3.2c-0.1-0.9-0.4-1.8-0.6-2.8c-1.4-7.1-4-13.9-4.6-21.4c-0.6-7.7-4.1-14.5-10.8-19.6
		c-3.3-2.5-7.1-3.2-10.7-4.4c-13.7-4.8-26.8-10.8-39.3-17.9c-8.6-4.9-17.1-10.1-25-16.2c-7.9-6.2-15.9-12.3-23.5-19
		c-2.7-2.4-4.5-5.7-7.6-7.7c-3.2-2.1-5.7-5.1-7.6-8.1c-2.5-3.9-5.7-7.2-8.5-10.6c-6.2-7.5-11.7-15.6-16.9-23.7
		c-5.6-8.8-10.6-18-14.8-27.6c-3.7-8.3-6.7-16.8-10-25.3c-0.4-1.2-0.8-2.8,0.3-3.9c2.8-2.6,9.9-0.7,10.8,2.9
		c1.7,6.5,4.9,12.5,7.3,18.7c3.5,8.9,8.5,17.3,13.4,25.6c3.8,6.5,8,12.8,12.4,18.9c5.2,7.1,10.9,13.8,17,20.1
		c11.5,11.7,23.1,23,36.7,32.5c5.8,4,11.7,7.8,17.6,11.6c9,5.8,18.9,10.1,28.6,14.6c6.6,3,13.5,4.7,20.2,7.3c2.4,1,4,0.4,3.4-2.8
		c-0.5-3.1-0.8-6.1-1.5-9.2c-1.5-7-3-14.1-3.6-21.2c-0.8-9.4-6-15.7-13.7-19.7c-9-4.6-17.7-9.7-26-15.4c-7.6-5.2-14.7-11-21.2-17.4
		c-5.4-5.4-10.6-10.9-15.5-16.8c-6.1-7.5-12-15-16.7-23.4c-5.8-10.3-11.5-20.7-15.5-32.1c-2.7-7.8-4.6-15.8-7.5-23.5
		c-0.4-1-0.8-2.4,0.6-3.3c3.4-2.2,8.3-1.1,10.3,2.5c0.9,1.5,1.5,3.2,1.9,4.9c2.4,9.9,5.8,19.6,10.5,28.7c5,9.6,10,19.2,16.6,27.9
		c5.8,7.6,11.1,15.5,17.9,22.3c8,8,16.7,15.1,26.1,21.4c7.2,4.8,14.1,9.8,21.9,13.5c1,0.5,2,1.9,3.3,1c1-0.7,0.3-2,0.4-3.1
		c0.7-13-4.8-24.9-6.3-37.5c-1-8.5-4.4-16.7-6.5-25.1c-4.1-16.2-9.1-32.2-14.3-48.1c-3.1-9.3-6.9-18.4-11.2-27.2
		c-3.6-7.3-8.3-14.1-12.5-21.1c-2.1-3.5-4.4-6.9-7-9.9c-7.2-8.3-13.7-17.2-22.4-24c-4.5-3.6-9-7.2-13.1-11.3
		c-3.4-3.3-7.5-5.1-11.7-6.9c-3.3-1.4-6.3-0.5-9.3,1.2c-4.1,2.4-7.5,5.9-11.6,8c-9.8,5.1-19.4,10.5-30.3,13.2
		C370.4,227.4,360,230.3,349.7,229.4z M146.9,114.8c-1.8,24.5,21.1,44.3,43.1,44.6c25.1,0.3,44.4-20.7,45.4-42.6
		c1.1-24.6-19.8-45.2-43.2-45.7C166.9,70.4,145.1,92.9,146.9,114.8z M386.7,114.5c2-21.6-20.2-43.9-44.1-43.4
		c-24.8,0.5-43.4,20.7-44.3,41.5c-1.3,27.5,21.3,46.3,41.7,46.8C366.3,160.1,387.5,139.5,386.7,114.5z M233.6,161.9
		c-0.6,3.6,1.1,7.3,1.9,11.1c0.6,3.3,3,6.3,4.6,9.4c6.7,13.9,13.3,27.8,19.9,41.7c1.2,2.5,1.4,5.5,3.5,7.6c2.5,2.5,4.5,2.4,6.8-0.2
		c2.2-2.4,2.5-5.6,3.8-8.4c5.8-11.9,11.9-23.7,17.2-35.9c2.7-6.1,6.4-11.7,7.8-18.6c2.5-12-0.7-22.1-8.8-30.4
		c-4.1-4.2-9.5-7.2-16.2-8.3c-10.1-1.7-18.7-0.7-26.9,5.8C238.8,142.4,233.8,150.5,233.6,161.9z M247.9,107.5c0,2-0.3,5,0.1,8
		c0.5,4.1,1.9,4.6,5.8,3.5c8.2-2.3,16.7-2.6,24.9-0.1c6.1,1.9,7.7,1.3,7.4-5.3c-0.9-19.2,2.8-37.7,8.8-55.8
		c2.5-7.7,7.1-14.5,11.1-21.5c2.4-4.1,6.3-7.4,9.5-11c1.6-1.7,2.8-3.9,1.3-5.9c-1.5-2-3.9-0.7-5.6,0.2c-6.6,3.3-13.5,6.3-19.6,10.6
		c-6.9,4.9-13.7,9.9-18.8,16.8c-3.2,4.3-9,4.3-11.7-0.3c-2.3-4-5.9-6.8-9.2-9.4c-8.3-6.7-17-12.9-27.3-16.5c-2.5-0.9-5.5-3.6-7.4-1
		c-2.2,2.9,1,5.5,3,7.6c5.3,5.5,9.5,11.7,13,18.3c4.4,8.2,7.5,16.9,9.6,26.1C245.2,83.1,247,94.7,247.9,107.5z M278.4,594.5
		C278.4,594.5,278.4,594.5,278.4,594.5c0.8,0,1.6,0,2.5,0c7.3-0.1,8.7-1.1,11.1-8c0.6-1.8,1.5-3.6,3.4-4.4c2.9-1.3,6.2-2.8,8.8-0.5
		c2.1,1.9,0.5,4.9-0.3,7.2c-1.4,4.5-0.7,5.6,4.1,5.7c7.2,0.1,14.5,0.2,21.7,0c4-0.1,8-0.8,11.6-3.2c4.8-3.1,9.7-3.1,14.7-0.2
		c5.4,3.2,11.5,4.1,17.7,3.5c3.3-0.3,4.4-2,4-5.2c-0.6-4.2-2.1-8.2-3.8-12c-2-4.3-5.3-7.1-10.5-6.8c-2.3,0.2-4.6,0-7,0
		c-2.2,0-3-0.7-2-3c0.5-1.2,0.9-2.3,1.7-3.4c4-5.4,7.9-11,11.5-16.7c2.9-4.6,5-9.8,8.1-14.3c2.7-3.9,4.7-7.9,5.5-12.5
		c0.6-3.1-0.2-5.7-3.3-7.5c-5.5-3.2-11-6.5-16.2-10.2c-2.2-1.6-2.9-1.1-3.9,0.9c-3.1,6.1-5.2,12.7-8.1,18.9
		c-5.1,10.7-10.3,21.2-17,31c-7.6,11.2-18.5,16.1-31.7,16.6c-4.5,0.2-9,0-13.5,0c-3.6,0-6.3,1.5-8.7,4.4c-3.3,3.9-5.3,8.3-6.9,13.1
		c-2.1,6.2-2.2,6.4,4.3,6.4C277.1,594.5,277.7,594.5,278.4,594.5z M476.7,528.6c-0.3-3.9-1.6-7.8-5.4-10.5c-2.5-1.8-5.3-3.2-7.9-4.8
		c-8.6-5.5-17.4-10.7-25.5-16.9c-5-3.9-9.9-7.8-14.8-11.8c-6.6-5.4-11.3-7.1-15.5,3.5c-1.6,4-2.3,8.4-3.9,12.3
		c-3.8,9.1-7.8,18.1-12.1,26.9c-1.6,3.4,0.4,4.4,2.6,5.5c0.8,0.4,1.8,0.3,2.7,0.8c9.4,5.4,19.6,8.9,29.6,13
		c10,4.1,20.5,6.8,30.5,10.9c2.3,0.9,3.9,0.9,5.7-1.6c4-5.5,6.9-11.6,10.7-17.1C475.1,536.1,476.8,532.7,476.7,528.6z M394.2,199.1
		c-0.6,2.7,1.1,4.3,3,5.8c1.5,1.2,3,1,4.5-0.1c6-4.5,12.6-8.3,17.8-13.7c6.8-6.9,13.2-13.8,18.1-22.5c3.6-6.4,6.7-12.8,8.5-19.9
		c0.2-0.7,0.1-1.6,0.1-2.4c-1.1-10.9-9.2-16.6-17-22c-6.9-4.7-14.9-7.4-23.2-9c-3.9-0.7-7.2,0.7-7.6,4.4c-1.1,9.7-4.8,18.4-9.5,26.8
		c-2.7,4.8-3,10.2-0.9,15.4C392.8,173.8,395.1,186.2,394.2,199.1z M146.9,154c-0.1-0.6-0.3-1.6-0.5-2.7c-0.7-3.8-3-6.8-4.7-10.2
		c-3.3-6.4-5.6-13.3-6.3-20.7c-0.3-3.4-2.5-5.9-5.9-5.4c-4.5,0.6-9.1,1.6-13.3,3.3c-6.8,2.9-13,7-18.9,11.6c-12.5,9.6-11,20-6,30.9
		c2.8,6.2,6.6,11.9,10.8,17.5c8,10.7,18.2,18.7,29.3,25.7c1.8,1.2,3.7,1.7,5.7,0.1c1.9-1.6,3-3.5,2.1-6.1c-0.6-1.6-0.6-3.2-0.5-4.8
		c0.8-10,1.7-20,5.9-29.3C146,160.9,146.8,157.8,146.9,154z M360.2,61.8c4-1,8.4-0.1,11.3-3.2c2.9-3.2,6.8-4.7,10.2-7.1
		c7.7-5.4,16.3-9,25.5-10.9c2.1-0.4,4.6-0.5,4.9-3.8c0.3-3.3-1.3-5.2-3.9-6.5c-5.1-2.6-9.9-5.8-15-8.4c-9-4.5-18.1-6.9-28-7
		c-4.9,0-9.7,0.9-14.5,1.6c-7.7,1.1-14.2,4.9-19.9,9.5c-5.5,4.5-10.6,9.5-14.9,15.5c-4.6,6.4-7.1,13.6-10.8,20.3
		c-0.9,1.7-0.9,3.9-1.2,5.9c-0.3,1.6,0.3,3,1.5,4c1.3,1.1,2.9,0.2,3.7-0.7c2-2.4,5-3.1,7.4-4.6c9.9-6.1,20.7-7,31.8-6.1
		C352.3,60.8,356.4,60.5,360.2,61.8z M168.6,14.9c-17.2-1-32.7,8.6-44.8,16.3c-1.9,1.2-2.6,3.2-2.3,5.3c0.3,2.1,1.8,3.2,3.8,3.7
		c1.8,0.5,3.6,1.3,5.5,1.6c11.3,2.2,20.4,8.6,29.4,15.3c2.4,1.8,4.7,3.4,7.9,3.8c4.7,0.6,9.3,0.2,13.8-0.4
		c15.4-1.9,29.6,0.7,42.3,10.1c1.2,0.9,2.7,2.3,4.3,0.8c1.3-1.2,1.7-2.7,1.1-4.7c-2.1-8-5.8-15.3-10.1-22.3
		c-4.9-7.9-11.2-14.7-18.8-20.1C191.2,17.5,180.3,14.7,168.6,14.9z M80.6,113.4c0,1.8-0.1,3.6,0,5.3c0.2,2.2,1.5,3.9,3.4,4.8
		c1.6,0.7,3.4,0.6,4.8-1c6.2-6.5,14.1-10.4,22.1-13.9c4.1-1.8,8.4-3.3,13.2-3.8c6.9-0.7,13.1-3.5,15.7-10.9c0.9-2.5,2-5,3.5-7.2
		c2.7-4,5.8-7.8,8.6-11.6c2.2-3,2.2-5.9-0.2-8.9c-4.6-5.8-11.1-9-17.6-11.8c-5.9-2.6-12.5-3.3-19-3.9c-7.6-0.7-13.3,1.9-17.5,8
		c-6.6,9.6-11.3,20.1-13.7,31.6C82.5,97.8,80.6,105.5,80.6,113.4z M452.9,114.7c0.6-2.4-0.5-5.2-0.8-8c-0.8-6.6-1.1-13.3-2.9-19.6
		c-2.5-8.7-6.6-16.7-10.8-24.8c-5-9.6-12.4-12.9-22.9-11.6c-10.6,1.2-20.3,4.5-28.9,10.7c-3.3,2.4-7.1,4.7-6.6,9.9
		c0.3,3.4,2.8,5.1,4.4,7.6c2.8,4.2,6.4,7.7,8.2,12.7c2.2,6,5.9,10.8,12.9,12.1c2.6,0.5,5.4,0.8,7.9,1.6c11.1,3.5,21.5,8.4,30.4,16.1
		c1.7,1.5,3.6,3.3,6.1,2c2.3-1.1,3-3.4,3-5.8C452.9,116.8,452.9,116,452.9,114.7z M240.9,594.5C240.9,594.5,240.9,594.5,240.9,594.5
		c3.5,0.1,7.1,0.1,10.6,0.1c3.5-0.1,6.4-1.1,7.8-4.7c1.3-3.4,2.5-6.8,3.9-10.1c3-6.9,6.8-13,13.9-16.5c3.1-1.6,6.8-3.3,8.5-6
		c6-9.7,12-19.4,17.2-29.6c2.4-4.7,2.3-5.9-1.9-9.1c-5.3-4-11.8-6-17-10.3c-1.7-1.4-3.6-0.8-4.5,1.5c-3.7,9.8-8.4,19.2-13.3,28.4
		c-3.2,6-6.6,12-10.8,17.5c-4.5,5.9-10.2,9.6-16.9,12.6c-7.5,3.4-15.2,2.2-22.9,2.3c-9.1,0.2-15.5,4.9-18.2,13.8
		c-0.5,1.7-1.1,3.4-2,4.9c-2.1,3.3-0.1,4.6,2.6,5c2.4,0.4,4.9-0.1,7.3,0.2c5.4,0.7,9.1-2.9,10.7-8c0.6-1.9,1.6-3,2.9-4
		c2.7-2.1,5.9-3.8,8.8-1c2.4,2.3,0.5,5.3-0.7,7.8c-1.7,3.5-0.9,5,3.1,5.1C233.8,594.6,237.3,594.5,240.9,594.5z M123.6,253
		c0.1,6.1,0.4,12.2,1.1,18.3c1.3,11.7,1.9,23.6,5.1,34.9c3.2,11.2,6.2,22.5,10.7,33.5c4,10,8.8,19.5,13.5,29.2
		c3.9,8.1,9.8,15.4,14.9,23c1.9,2.8,4,5.4,6,8.1c1,1.4,2.4,1.9,3.9,1.2c1.6-0.8,0.9-2.1,0.6-3.5c-1.1-4.7-4.5-8.3-6.3-12.6
		c-4.7-11.2-9.4-22.3-13.6-33.7c-4.1-11.2-6.2-23-9.8-34.3c-1.3-4-2-8.2-2.5-12.3c-1.4-12.1-2.7-24.3-3.7-36.5
		c-0.8-10-1.2-20.1,0.1-30.1c1.1-8.1-1.9-14.7-8.6-19.4c-3.7-2.5-7.6-0.8-8.4,3.6C124.7,232.4,123.6,242.6,123.6,253z M305.5,558.6
		c7.4-0.2,13.1-4.8,17.7-10.5c3.8-4.8,6.2-10.6,9.6-15.8c8-12.5,7.9-13.7-2.5-21.8c-0.1-0.1-0.2-0.2-0.3-0.3
		c-2.6-1.9-5.4-1.2-6.8,1.7c-2.1,4.7-4.2,9.4-6.5,13.8c-4.8,9-9,18.4-14.7,26.9c-1,1.5-2.7,3.3-1.6,5.2
		C301.1,559.3,303.3,558.2,305.5,558.6z M330.1,493.9c-0.4,2.1,0.6,3.4,2.2,4.5c2.6,1.9,5.7,3.1,8.3,4.8c3.3,2.1,5.1,0.7,6.7-1.7
		c1.7-2.7,3.2-5.7,0.3-8.5c-2-2-4.4-3.7-6.9-5.1c-2.4-1.3-3.4-5.7-6.6-4.3c-2.7,1.2-2.4,5.2-3.5,7.9
		C330.3,492.3,330.3,493.1,330.1,493.9z"/>
	<path class="st0" d="M216.7,130.9c1.2,2.7,0,4.2-1.3,5.6c-9.7,10.6-25.3,14.5-38.8,7.6c-16.3-8.3-21.7-25.7-15.9-41.6
		c2-5.4,6.1-9.5,10.6-13c0.9-0.7,1.9-2.1,3.1-0.8c0.9,1-0.4,2-0.8,2.9c-3.5,6.9-6.6,13.9-4.8,22c2.3,10,7.6,17.9,17.2,21.7
		c4.8,1.9,10.2,3.1,15.9,1.8C207.3,136,212.4,134.6,216.7,130.9z"/>
	<path class="st0" d="M343.1,147.6c-17.5-0.6-28.3-10.1-32-24.2c-2.2-8.6-2-18.2,4.7-26.3c2.3-2.7,4.6-5.1,7.1-7.5
		c0.8-0.8,1.8-1.7,2.8-0.8c1,0.9,0.3,2-0.3,2.9c-6.7,10.2-7.1,21.3-1.4,31.5c5.7,10.3,18.9,16.9,31.3,13.7c4.1-1.1,7.8-2.6,11.4-4.7
		c0.6-0.4,1.4-1.2,2.2-0.4c1,0.9,0.1,1.8-0.3,2.5c-3.6,6.1-9.5,9-15.6,11.6C349.6,147.3,346,148.1,343.1,147.6z"/>
</g>
</svg>
